<?xml version="1.0" standalone="no"?>
<!DOCTYPE svg PUBLIC "-//W3C//DTD SVG 1.1//EN" "http://www.w3.org/Graphics/SVG/1.1/DTD/svg11.dtd">
<svg xmlns:xlink="http://www.w3.org/1999/xlink" width="123.03ex" height="88.843ex" style="vertical-align: -43.838ex;" viewBox="0 -19376.9 52971.1 38251.5" xmlns="http://www.w3.org/2000/svg">
<defs>
<path stroke-width="10" id="E1-MJMAIN-6C" d="M42 46H56Q95 46 103 60V68Q103 77 103 91T103 124T104 167T104 217T104 272T104 329Q104 366 104 407T104 482T104 542T103 586T103 603Q100 622 89 628T44 637H26V660Q26 683 28 683L38 684Q48 685 67 686T104 688Q121 689 141 690T171 693T182 694H185V379Q185 62 186 60Q190 52 198 49Q219 46 247 46H263V0H255L232 1Q209 2 183 2T145 3T107 3T57 1L34 0H26V46H42Z"></path>
<path stroke-width="10" id="E1-MJMAIN-6E" d="M41 46H55Q94 46 102 60V68Q102 77 102 91T102 122T103 161T103 203Q103 234 103 269T102 328V351Q99 370 88 376T43 385H25V408Q25 431 27 431L37 432Q47 433 65 434T102 436Q119 437 138 438T167 441T178 442H181V402Q181 364 182 364T187 369T199 384T218 402T247 421T285 437Q305 442 336 442Q450 438 463 329Q464 322 464 190V104Q464 66 466 59T477 49Q498 46 526 46H542V0H534L510 1Q487 2 460 2T422 3Q319 3 310 0H302V46H318Q379 46 379 62Q380 64 380 200Q379 335 378 343Q372 371 358 385T334 402T308 404Q263 404 229 370Q202 343 195 315T187 232V168V108Q187 78 188 68T191 55T200 49Q221 46 249 46H265V0H257L234 1Q210 2 183 2T145 3Q42 3 33 0H25V46H41Z"></path>
<path stroke-width="10" id="E1-MJMATHI-71" d="M33 157Q33 258 109 349T280 441Q340 441 372 389Q373 390 377 395T388 406T404 418Q438 442 450 442Q454 442 457 439T460 434Q460 425 391 149Q320 -135 320 -139Q320 -147 365 -148H390Q396 -156 396 -157T393 -175Q389 -188 383 -194H370Q339 -192 262 -192Q234 -192 211 -192T174 -192T157 -193Q143 -193 143 -185Q143 -182 145 -170Q149 -154 152 -151T172 -148Q220 -148 230 -141Q238 -136 258 -53T279 32Q279 33 272 29Q224 -10 172 -10Q117 -10 75 30T33 157ZM352 326Q329 405 277 405Q242 405 210 374T160 293Q131 214 119 129Q119 126 119 118T118 106Q118 61 136 44T179 26Q233 26 290 98L298 109L352 326Z"></path>
<path stroke-width="10" id="E1-MJMAIN-2217" d="M229 286Q216 420 216 436Q216 454 240 464Q241 464 245 464T251 465Q263 464 273 456T283 436Q283 419 277 356T270 286L328 328Q384 369 389 372T399 375Q412 375 423 365T435 338Q435 325 425 315Q420 312 357 282T289 250L355 219L425 184Q434 175 434 161Q434 146 425 136T401 125Q393 125 383 131T328 171L270 213Q283 79 283 63Q283 53 276 44T250 35Q231 35 224 44T216 63Q216 80 222 143T229 213L171 171Q115 130 110 127Q106 124 100 124Q87 124 76 134T64 161Q64 166 64 169T67 175T72 181T81 188T94 195T113 204T138 215T170 230T210 250L74 315Q65 324 65 338Q65 353 74 363T98 374Q106 374 116 368T171 328L229 286Z"></path>
<path stroke-width="10" id="E1-MJMATHI-3BC" d="M58 -216Q44 -216 34 -208T23 -186Q23 -176 96 116T173 414Q186 442 219 442Q231 441 239 435T249 423T251 413Q251 401 220 279T187 142Q185 131 185 107V99Q185 26 252 26Q261 26 270 27T287 31T302 38T315 45T327 55T338 65T348 77T356 88T365 100L372 110L408 253Q444 395 448 404Q461 431 491 431Q504 431 512 424T523 412T525 402L449 84Q448 79 448 68Q448 43 455 35T476 26Q485 27 496 35Q517 55 537 131Q543 151 547 152Q549 153 557 153H561Q580 153 580 144Q580 138 575 117T555 63T523 13Q510 0 491 -8Q483 -10 467 -10Q446 -10 429 -4T402 11T385 29T376 44T374 51L368 45Q362 39 350 30T324 12T288 -4T246 -11Q199 -11 153 12L129 -85Q108 -167 104 -180T92 -202Q76 -216 58 -216Z"></path>
<path stroke-width="10" id="E1-MJMAIN-28" d="M94 250Q94 319 104 381T127 488T164 576T202 643T244 695T277 729T302 750H315H319Q333 750 333 741Q333 738 316 720T275 667T226 581T184 443T167 250T184 58T225 -81T274 -167T316 -220T333 -241Q333 -250 318 -250H315H302L274 -226Q180 -141 137 -14T94 250Z"></path>
<path stroke-width="10" id="E1-MJMAIN-29" d="M60 749L64 750Q69 750 74 750H86L114 726Q208 641 251 514T294 250Q294 182 284 119T261 12T224 -76T186 -143T145 -194T113 -227T90 -246Q87 -249 86 -250H74Q66 -250 63 -250T58 -247T55 -238Q56 -237 66 -225Q221 -64 221 250T66 725Q56 737 55 738Q55 746 60 749Z"></path>
<path stroke-width="10" id="E1-MJMAIN-3D" d="M56 347Q56 360 70 367H707Q722 359 722 347Q722 336 708 328L390 327H72Q56 332 56 347ZM56 153Q56 168 72 173H708Q722 163 722 153Q722 140 707 133H70Q56 140 56 153Z"></path>
<path stroke-width="10" id="E1-MJMAIN-2212" d="M84 237T84 250T98 270H679Q694 262 694 250T679 230H98Q84 237 84 250Z"></path>
<path stroke-width="10" id="E1-MJMAIN-45" d="M128 619Q121 626 117 628T101 631T58 634H25V680H597V676Q599 670 611 560T625 444V440H585V444Q584 447 582 465Q578 500 570 526T553 571T528 601T498 619T457 629T411 633T353 634Q266 634 251 633T233 622Q233 622 233 621Q232 619 232 497V376H286Q359 378 377 385Q413 401 416 469Q416 471 416 473V493H456V213H416V233Q415 268 408 288T383 317T349 328T297 330Q290 330 286 330H232V196V114Q232 57 237 52Q243 47 289 47H340H391Q428 47 452 50T505 62T552 92T584 146Q594 172 599 200T607 247T612 270V273H652V270Q651 267 632 137T610 3V0H25V46H58Q100 47 109 49T128 61V619Z"></path>
<path stroke-width="10" id="E1-MJMATHI-3C4" d="M39 284Q18 284 18 294Q18 301 45 338T99 398Q134 425 164 429Q170 431 332 431Q492 431 497 429Q517 424 517 402Q517 388 508 376T485 360Q479 358 389 358T299 356Q298 355 283 274T251 109T233 20Q228 5 215 -4T186 -13Q153 -13 153 20V30L203 192Q214 228 227 272T248 336L254 357Q254 358 208 358Q206 358 197 358T183 359Q105 359 61 295Q56 287 53 286T39 284Z"></path>
<path stroke-width="10" id="E1-MJMAIN-5B" d="M118 -250V750H255V710H158V-210H255V-250H118Z"></path>
<path stroke-width="10" id="E1-MJMAIN-5D" d="M22 710V750H159V-250H22V-210H119V710H22Z"></path>
<path stroke-width="10" id="E1-MJMAIN-32" d="M109 429Q82 429 66 447T50 491Q50 562 103 614T235 666Q326 666 387 610T449 465Q449 422 429 383T381 315T301 241Q265 210 201 149L142 93L218 92Q375 92 385 97Q392 99 409 186V189H449V186Q448 183 436 95T421 3V0H50V19V31Q50 38 56 46T86 81Q115 113 136 137Q145 147 170 174T204 211T233 244T261 278T284 308T305 340T320 369T333 401T340 431T343 464Q343 527 309 573T212 619Q179 619 154 602T119 569T109 550Q109 549 114 549Q132 549 151 535T170 489Q170 464 154 447T109 429Z"></path>
<path stroke-width="10" id="E1-MJMAIN-7B" d="M434 -231Q434 -244 428 -250H410Q281 -250 230 -184Q225 -177 222 -172T217 -161T213 -148T211 -133T210 -111T209 -84T209 -47T209 0Q209 21 209 53Q208 142 204 153Q203 154 203 155Q189 191 153 211T82 231Q71 231 68 234T65 250T68 266T82 269Q116 269 152 289T203 345Q208 356 208 377T209 529V579Q209 634 215 656T244 698Q270 724 324 740Q361 748 377 749Q379 749 390 749T408 750H428Q434 744 434 732Q434 719 431 716Q429 713 415 713Q362 710 332 689T296 647Q291 634 291 499V417Q291 370 288 353T271 314Q240 271 184 255L170 250L184 245Q202 239 220 230T262 196T290 137Q291 131 291 1Q291 -134 296 -147Q306 -174 339 -192T415 -213Q429 -213 431 -216Q434 -219 434 -231Z"></path>
<path stroke-width="10" id="E1-MJSZ2-2211" d="M60 948Q63 950 665 950H1267L1325 815Q1384 677 1388 669H1348L1341 683Q1320 724 1285 761Q1235 809 1174 838T1033 881T882 898T699 902H574H543H251L259 891Q722 258 724 252Q725 250 724 246Q721 243 460 -56L196 -356Q196 -357 407 -357Q459 -357 548 -357T676 -358Q812 -358 896 -353T1063 -332T1204 -283T1307 -196Q1328 -170 1348 -124H1388Q1388 -125 1381 -145T1356 -210T1325 -294L1267 -449L666 -450Q64 -450 61 -448Q55 -446 55 -439Q55 -437 57 -433L590 177Q590 178 557 222T452 366T322 544L56 909L55 924Q55 945 60 948Z"></path>
<path stroke-width="10" id="E1-MJMATHI-6E" d="M21 287Q22 293 24 303T36 341T56 388T89 425T135 442Q171 442 195 424T225 390T231 369Q231 367 232 367L243 378Q304 442 382 442Q436 442 469 415T503 336T465 179T427 52Q427 26 444 26Q450 26 453 27Q482 32 505 65T540 145Q542 153 560 153Q580 153 580 145Q580 144 576 130Q568 101 554 73T508 17T439 -10Q392 -10 371 17T350 73Q350 92 386 193T423 345Q423 404 379 404H374Q288 404 229 303L222 291L189 157Q156 26 151 16Q138 -11 108 -11Q95 -11 87 -5T76 7T74 17Q74 30 112 180T152 343Q153 348 153 366Q153 405 129 405Q91 405 66 305Q60 285 60 284Q58 278 41 278H27Q21 284 21 287Z"></path>
<path stroke-width="10" id="E1-MJMAIN-31" d="M213 578L200 573Q186 568 160 563T102 556H83V602H102Q149 604 189 617T245 641T273 663Q275 666 285 666Q294 666 302 660V361L303 61Q310 54 315 52T339 48T401 46H427V0H416Q395 3 257 3Q121 3 100 0H88V46H114Q136 46 152 46T177 47T193 50T201 52T207 57T213 61V578Z"></path>
<path stroke-width="10" id="E1-MJMATHI-4E" d="M234 637Q231 637 226 637Q201 637 196 638T191 649Q191 676 202 682Q204 683 299 683Q376 683 387 683T401 677Q612 181 616 168L670 381Q723 592 723 606Q723 633 659 637Q635 637 635 648Q635 650 637 660Q641 676 643 679T653 683Q656 683 684 682T767 680Q817 680 843 681T873 682Q888 682 888 672Q888 650 880 642Q878 637 858 637Q787 633 769 597L620 7Q618 0 599 0Q585 0 582 2Q579 5 453 305L326 604L261 344Q196 88 196 79Q201 46 268 46H278Q284 41 284 38T282 19Q278 6 272 0H259Q228 2 151 2Q123 2 100 2T63 2T46 1Q31 1 31 10Q31 14 34 26T39 40Q41 46 62 46Q130 49 150 85Q154 91 221 362L289 634Q287 635 234 637Z"></path>
<path stroke-width="10" id="E1-MJMATHI-78" d="M52 289Q59 331 106 386T222 442Q257 442 286 424T329 379Q371 442 430 442Q467 442 494 420T522 361Q522 332 508 314T481 292T458 288Q439 288 427 299T415 328Q415 374 465 391Q454 404 425 404Q412 404 406 402Q368 386 350 336Q290 115 290 78Q290 50 306 38T341 26Q378 26 414 59T463 140Q466 150 469 151T485 153H489Q504 153 504 145Q504 144 502 134Q486 77 440 33T333 -11Q263 -11 227 52Q186 -10 133 -10H127Q78 -10 57 16T35 71Q35 103 54 123T99 143Q142 143 142 101Q142 81 130 66T107 46T94 41L91 40Q91 39 97 36T113 29T132 26Q168 26 194 71Q203 87 217 139T245 247T261 313Q266 340 266 352Q266 380 251 392T217 404Q177 404 142 372T93 290Q91 281 88 280T72 278H58Q52 284 52 289Z"></path>
<path stroke-width="10" id="E1-MJMAIN-2B" d="M56 237T56 250T70 270H369V420L370 570Q380 583 389 583Q402 583 409 568V270H707Q722 262 722 250T707 230H409V-68Q401 -82 391 -82H389H387Q375 -82 369 -68V230H70Q56 237 56 250Z"></path>
<path stroke-width="10" id="E1-MJMATHI-3BB" d="M166 673Q166 685 183 694H202Q292 691 316 644Q322 629 373 486T474 207T524 67Q531 47 537 34T546 15T551 6T555 2T556 -2T550 -11H482Q457 3 450 18T399 152L354 277L340 262Q327 246 293 207T236 141Q211 112 174 69Q123 9 111 -1T83 -12Q47 -12 47 20Q47 37 61 52T199 187Q229 216 266 252T321 306L338 322Q338 323 288 462T234 612Q214 657 183 657Q166 657 166 673Z"></path>
<path stroke-width="10" id="E1-MJMAIN-30" d="M96 585Q152 666 249 666Q297 666 345 640T423 548Q460 465 460 320Q460 165 417 83Q397 41 362 16T301 -15T250 -22Q224 -22 198 -16T137 16T82 83Q39 165 39 320Q39 494 96 585ZM321 597Q291 629 250 629Q208 629 178 597Q153 571 145 525T137 333Q137 175 145 125T181 46Q209 16 250 16Q290 16 318 46Q347 76 354 130T362 333Q362 478 354 524T321 597Z"></path>
<path stroke-width="10" id="E1-MJMAIN-7D" d="M65 731Q65 745 68 747T88 750Q171 750 216 725T279 670Q288 649 289 635T291 501Q292 362 293 357Q306 312 345 291T417 269Q428 269 431 266T434 250T431 234T417 231Q380 231 345 210T298 157Q293 143 292 121T291 -28V-79Q291 -134 285 -156T256 -198Q202 -250 89 -250Q71 -250 68 -247T65 -230Q65 -224 65 -223T66 -218T69 -214T77 -213Q91 -213 108 -210T146 -200T183 -177T207 -139Q208 -134 209 3L210 139Q223 196 280 230Q315 247 330 250Q305 257 280 270Q225 304 212 352L210 362L209 498Q208 635 207 640Q195 680 154 696T77 713Q68 713 67 716T65 731Z"></path>
<path stroke-width="10" id="E1-MJSZ4-7B" d="M661 -1243L655 -1249H622L604 -1240Q503 -1190 434 -1107T348 -909Q346 -897 346 -499L345 -98L343 -82Q335 3 287 87T157 223Q146 232 145 236Q144 240 144 250Q144 265 145 268T157 278Q242 333 288 417T343 583L345 600L346 1001Q346 1398 348 1410Q379 1622 600 1739L622 1750H655L661 1744V1727V1721Q661 1712 661 1710T657 1705T648 1700T630 1690T602 1668Q589 1659 574 1643T531 1593T484 1508T459 1398Q458 1389 458 1001Q458 614 457 605Q441 435 301 316Q254 277 202 251L250 222Q260 216 301 185Q443 66 457 -104Q458 -113 458 -501Q458 -888 459 -897Q463 -944 478 -988T509 -1060T548 -1114T580 -1149T602 -1167Q620 -1183 634 -1192T653 -1202T659 -1207T661 -1220V-1226V-1243Z"></path>
<path stroke-width="10" id="E1-MJSZ4-7D" d="M144 1727Q144 1743 146 1746T162 1750H167H183L203 1740Q274 1705 325 1658T403 1562T440 1478T456 1410Q458 1398 458 1001Q459 661 459 624T465 558Q470 526 480 496T502 441T529 395T559 356T588 325T615 301T637 284T654 273L660 269V266Q660 263 660 259T661 250V239Q661 236 661 234T660 232T656 229T649 224Q577 179 528 105T465 -57Q460 -86 460 -123T458 -499V-661Q458 -857 457 -893T447 -955Q425 -1048 359 -1120T203 -1239L183 -1249H168Q150 -1249 147 -1246T144 -1226Q144 -1213 145 -1210T153 -1202Q169 -1193 186 -1181T232 -1140T282 -1081T322 -1000T345 -897Q346 -888 346 -501Q346 -113 347 -104Q359 58 503 184Q554 226 603 250Q504 299 430 393T347 605Q346 614 346 1002Q346 1389 345 1398Q338 1493 288 1573T153 1703Q146 1707 145 1710T144 1727Z"></path>
<path stroke-width="10" id="E1-MJMATHI-43" d="M50 252Q50 367 117 473T286 641T490 704Q580 704 633 653Q642 643 648 636T656 626L657 623Q660 623 684 649Q691 655 699 663T715 679T725 690L740 705H746Q760 705 760 698Q760 694 728 561Q692 422 692 421Q690 416 687 415T669 413H653Q647 419 647 422Q647 423 648 429T650 449T651 481Q651 552 619 605T510 659Q484 659 454 652T382 628T299 572T226 479Q194 422 175 346T156 222Q156 108 232 58Q280 24 350 24Q441 24 512 92T606 240Q610 253 612 255T628 257Q648 257 648 248Q648 243 647 239Q618 132 523 55T319 -22Q206 -22 128 53T50 252Z"></path>
<path stroke-width="10" id="E1-MJMAIN-33" d="M127 463Q100 463 85 480T69 524Q69 579 117 622T233 665Q268 665 277 664Q351 652 390 611T430 522Q430 470 396 421T302 350L299 348Q299 347 308 345T337 336T375 315Q457 262 457 175Q457 96 395 37T238 -22Q158 -22 100 21T42 130Q42 158 60 175T105 193Q133 193 151 175T169 130Q169 119 166 110T159 94T148 82T136 74T126 70T118 67L114 66Q165 21 238 21Q293 21 321 74Q338 107 338 175V195Q338 290 274 322Q259 328 213 329L171 330L168 332Q166 335 166 348Q166 366 174 366Q202 366 232 371Q266 376 294 413T322 525V533Q322 590 287 612Q265 626 240 626Q208 626 181 615T143 592T132 580H135Q138 579 143 578T153 573T165 566T175 555T183 540T186 520Q186 498 172 481T127 463Z"></path>
<path stroke-width="10" id="E1-MJSZ4-28" d="M758 -1237T758 -1240T752 -1249H736Q718 -1249 717 -1248Q711 -1245 672 -1199Q237 -706 237 251T672 1700Q697 1730 716 1749Q718 1750 735 1750H752Q758 1744 758 1741Q758 1737 740 1713T689 1644T619 1537T540 1380T463 1176Q348 802 348 251Q348 -242 441 -599T744 -1218Q758 -1237 758 -1240Z"></path>
<path stroke-width="10" id="E1-MJSZ4-29" d="M33 1741Q33 1750 51 1750H60H65Q73 1750 81 1743T119 1700Q554 1207 554 251Q554 -707 119 -1199Q76 -1250 66 -1250Q65 -1250 62 -1250T56 -1249Q55 -1249 53 -1249T49 -1250Q33 -1250 33 -1239Q33 -1236 50 -1214T98 -1150T163 -1052T238 -910T311 -727Q443 -335 443 251Q443 402 436 532T405 831T339 1142T224 1438T50 1716Q33 1737 33 1741Z"></path>
<path stroke-width="10" id="E1-MJMAIN-34" d="M462 0Q444 3 333 3Q217 3 199 0H190V46H221Q241 46 248 46T265 48T279 53T286 61Q287 63 287 115V165H28V211L179 442Q332 674 334 675Q336 677 355 677H373L379 671V211H471V165H379V114Q379 73 379 66T385 54Q393 47 442 46H471V0H462ZM293 211V545L74 212L183 211H293Z"></path>
<path stroke-width="10" id="E1-MJSZ1-2211" d="M61 748Q64 750 489 750H913L954 640Q965 609 976 579T993 533T999 516H979L959 517Q936 579 886 621T777 682Q724 700 655 705T436 710H319Q183 710 183 709Q186 706 348 484T511 259Q517 250 513 244L490 216Q466 188 420 134T330 27L149 -187Q149 -188 362 -188Q388 -188 436 -188T506 -189Q679 -189 778 -162T936 -43Q946 -27 959 6H999L913 -249L489 -250Q65 -250 62 -248Q56 -246 56 -239Q56 -234 118 -161Q186 -81 245 -11L428 206Q428 207 242 462L57 717L56 728Q56 744 61 748Z"></path>
<path stroke-width="10" id="E1-MJSZ4-239B" d="M837 1154Q843 1148 843 1145Q843 1141 818 1106T753 1002T667 841T574 604T494 299Q417 -84 417 -609Q417 -641 416 -647T411 -654Q409 -655 366 -655Q299 -655 297 -654Q292 -652 292 -643T291 -583Q293 -400 304 -242T347 110T432 470T574 813T785 1136Q787 1139 790 1142T794 1147T796 1150T799 1152T802 1153T807 1154T813 1154H819H837Z"></path>
<path stroke-width="10" id="E1-MJSZ4-239D" d="M843 -635Q843 -638 837 -644H820Q801 -644 800 -643Q792 -635 785 -626Q684 -503 605 -363T473 -75T385 216T330 518T302 809T291 1093Q291 1144 291 1153T296 1164Q298 1165 366 1165Q409 1165 411 1164Q415 1163 416 1157T417 1119Q417 529 517 109T833 -617Q843 -631 843 -635Z"></path>
<path stroke-width="10" id="E1-MJSZ4-239E" d="M31 1143Q31 1154 49 1154H59Q72 1154 75 1152T89 1136Q190 1013 269 873T401 585T489 294T544 -8T572 -299T583 -583Q583 -634 583 -643T577 -654Q575 -655 508 -655Q465 -655 463 -654Q459 -653 458 -647T457 -609Q457 -58 371 340T100 1037Q87 1059 61 1098T31 1143Z"></path>
<path stroke-width="10" id="E1-MJSZ4-23A0" d="M56 -644H50Q31 -644 31 -635Q31 -632 37 -622Q69 -579 100 -527Q286 -228 371 170T457 1119Q457 1161 462 1164Q464 1165 520 1165Q575 1165 577 1164Q582 1162 582 1153T583 1093Q581 910 570 752T527 400T442 40T300 -303T89 -626Q78 -640 75 -642T61 -644H56Z"></path>
<path stroke-width="10" id="E1-MJSZ4-23A7" d="M712 899L718 893V876V865Q718 854 704 846Q627 793 577 710T510 525Q510 524 509 521Q505 493 504 349Q504 345 504 334Q504 277 504 240Q504 -2 503 -4Q502 -8 494 -9T444 -10Q392 -10 390 -9Q387 -8 386 -5Q384 5 384 230Q384 262 384 312T383 382Q383 481 392 535T434 656Q510 806 664 892L677 899H712Z"></path>
<path stroke-width="10" id="E1-MJSZ4-23A9" d="M718 -893L712 -899H677L666 -893Q542 -825 468 -714T385 -476Q384 -466 384 -282Q384 3 385 5L389 9Q392 10 444 10Q486 10 494 9T503 4Q504 2 504 -239V-310V-366Q504 -470 508 -513T530 -609Q546 -657 569 -698T617 -767T661 -812T699 -843T717 -856T718 -876V-893Z"></path>
<path stroke-width="10" id="E1-MJSZ4-23A8" d="M389 1159Q391 1160 455 1160Q496 1160 498 1159Q501 1158 502 1155Q504 1145 504 924Q504 691 503 682Q494 549 425 439T243 259L229 250L243 241Q349 175 421 66T503 -182Q504 -191 504 -424Q504 -600 504 -629T499 -659H498Q496 -660 444 -660T390 -659Q387 -658 386 -655Q384 -645 384 -425V-282Q384 -176 377 -116T342 10Q325 54 301 92T255 155T214 196T183 222T171 232Q170 233 170 250T171 268Q171 269 191 284T240 331T300 407T354 524T383 679Q384 691 384 925Q384 1152 385 1155L389 1159Z"></path>
<path stroke-width="10" id="E1-MJSZ4-23AB" d="M170 875Q170 892 172 895T189 899H194H211L222 893Q345 826 420 715T503 476Q504 467 504 230Q504 51 504 21T499 -9H498Q496 -10 444 -10Q402 -10 394 -9T385 -4Q384 -2 384 240V311V366Q384 469 380 513T358 609Q342 657 319 698T271 767T227 812T189 843T171 856T170 875Z"></path>
<path stroke-width="10" id="E1-MJSZ4-23AD" d="M384 -239V-57Q384 4 389 9Q391 10 455 10Q496 10 498 9Q501 8 502 5Q504 -5 504 -230Q504 -261 504 -311T505 -381Q505 -486 492 -551T435 -691Q357 -820 222 -893L211 -899H195Q176 -899 173 -896T170 -874Q170 -858 171 -855T184 -846Q262 -793 312 -709T378 -525Q378 -524 379 -522Q383 -493 384 -351Q384 -345 384 -334Q384 -276 384 -239Z"></path>
<path stroke-width="10" id="E1-MJSZ4-23AC" d="M389 1159Q391 1160 455 1160Q496 1160 498 1159Q501 1158 502 1155Q504 1145 504 925V782Q504 676 511 616T546 490Q563 446 587 408T633 345T674 304T705 278T717 268Q718 267 718 250T717 232Q717 231 697 216T648 169T588 93T534 -24T505 -179Q504 -191 504 -425Q504 -600 504 -629T499 -659H498Q496 -660 444 -660T390 -659Q387 -658 386 -655Q384 -645 384 -424Q384 -191 385 -182Q394 -49 463 61T645 241L659 250L645 259Q539 325 467 434T385 682Q384 692 384 873Q384 1153 385 1155L389 1159Z"></path>
<path stroke-width="10" id="E1-MJMAIN-35" d="M164 157Q164 133 148 117T109 101H102Q148 22 224 22Q294 22 326 82Q345 115 345 210Q345 313 318 349Q292 382 260 382H254Q176 382 136 314Q132 307 129 306T114 304Q97 304 95 310Q93 314 93 485V614Q93 664 98 664Q100 666 102 666Q103 666 123 658T178 642T253 634Q324 634 389 662Q397 666 402 666Q410 666 410 648V635Q328 538 205 538Q174 538 149 544L139 546V374Q158 388 169 396T205 412T256 420Q337 420 393 355T449 201Q449 109 385 44T229 -22Q148 -22 99 32T50 154Q50 178 61 192T84 210T107 214Q132 214 148 197T164 157Z"></path>
</defs>
<g stroke="currentColor" fill="currentColor" stroke-width="0" transform="matrix(1 0 0 -1 0 0)">
<g transform="translate(167,0)">
<g transform="translate(-11,0)">
<g transform="translate(0,17526)">
 <use xlink:href="#E1-MJMAIN-6C"></use>
 <use xlink:href="#E1-MJMAIN-6E" x="283" y="0"></use>
<g transform="translate(1010,0)">
 <use xlink:href="#E1-MJMATHI-71" x="0" y="0"></use>
 <use transform="scale(0.707)" xlink:href="#E1-MJMAIN-2217" x="663" y="462"></use>
 <use transform="scale(0.707)" xlink:href="#E1-MJMATHI-3BC" x="637" y="-220"></use>
</g>
 <use xlink:href="#E1-MJMAIN-28" x="1991" y="0"></use>
 <use xlink:href="#E1-MJMATHI-3BC" x="2385" y="0"></use>
 <use xlink:href="#E1-MJMAIN-29" x="2993" y="0"></use>
</g>
</g>
<g transform="translate(3377,0)">
<g transform="translate(0,17526)">
 <use xlink:href="#E1-MJMAIN-3D" x="277" y="0"></use>
 <use xlink:href="#E1-MJMAIN-2212" x="1338" y="0"></use>
<g transform="translate(2121,0)">
<g transform="translate(120,0)">
<rect stroke="none" width="2363" height="60" x="0" y="220"></rect>
<g transform="translate(60,779)">
 <use xlink:href="#E1-MJMAIN-45" x="0" y="0"></use>
 <use transform="scale(0.707)" xlink:href="#E1-MJMATHI-3C4" x="970" y="-213"></use>
 <use xlink:href="#E1-MJMAIN-5B" x="1155" y="0"></use>
 <use xlink:href="#E1-MJMATHI-3C4" x="1438" y="0"></use>
 <use xlink:href="#E1-MJMAIN-5D" x="1960" y="0"></use>
</g>
 <use xlink:href="#E1-MJMAIN-32" x="929" y="-696"></use>
</g>
</g>
<g transform="translate(4891,0)">
 <use xlink:href="#E1-MJSZ4-7B"></use>
<g transform="translate(811,0)">
 <use xlink:href="#E1-MJSZ2-2211" x="0" y="0"></use>
<g transform="translate(55,-1105)">
 <use transform="scale(0.707)" xlink:href="#E1-MJMATHI-6E" x="0" y="0"></use>
 <use transform="scale(0.707)" xlink:href="#E1-MJMAIN-3D" x="605" y="0"></use>
 <use transform="scale(0.707)" xlink:href="#E1-MJMAIN-31" x="1388" y="0"></use>
</g>
 <use transform="scale(0.707)" xlink:href="#E1-MJMATHI-4E" x="578" y="1640"></use>
</g>
 <use xlink:href="#E1-MJMAIN-28" x="2260" y="0"></use>
<g transform="translate(2654,0)">
 <use xlink:href="#E1-MJMATHI-78" x="0" y="0"></use>
 <use transform="scale(0.707)" xlink:href="#E1-MJMATHI-6E" x="816" y="-213"></use>
</g>
 <use xlink:href="#E1-MJMAIN-2212" x="3981" y="0"></use>
 <use xlink:href="#E1-MJMATHI-3BC" x="4986" y="0"></use>
<g transform="translate(5594,0)">
 <use xlink:href="#E1-MJMAIN-29" x="0" y="0"></use>
 <use transform="scale(0.707)" xlink:href="#E1-MJMAIN-32" x="557" y="583"></use>
</g>
 <use xlink:href="#E1-MJMAIN-2B" x="6667" y="0"></use>
<g transform="translate(7672,0)">
 <use xlink:href="#E1-MJMATHI-3BB" x="0" y="0"></use>
 <use transform="scale(0.707)" xlink:href="#E1-MJMAIN-30" x="831" y="-213"></use>
</g>
 <use xlink:href="#E1-MJMAIN-28" x="8717" y="0"></use>
 <use xlink:href="#E1-MJMATHI-3BC" x="9111" y="0"></use>
 <use xlink:href="#E1-MJMAIN-2212" x="9942" y="0"></use>
<g transform="translate(10947,0)">
 <use xlink:href="#E1-MJMATHI-3BC" x="0" y="0"></use>
 <use transform="scale(0.707)" xlink:href="#E1-MJMAIN-30" x="859" y="-213"></use>
</g>
<g transform="translate(12012,0)">
 <use xlink:href="#E1-MJMAIN-29" x="0" y="0"></use>
 <use transform="scale(0.707)" xlink:href="#E1-MJMAIN-32" x="557" y="583"></use>
</g>
 <use xlink:href="#E1-MJSZ4-7D" x="12863" y="-1"></use>
</g>
 <use xlink:href="#E1-MJMAIN-2B" x="18788" y="0"></use>
<g transform="translate(19793,0)">
 <use xlink:href="#E1-MJMATHI-43" x="0" y="0"></use>
 <use transform="scale(0.707)" xlink:href="#E1-MJMAIN-33" x="1018" y="-213"></use>
</g>
</g>
<g transform="translate(0,14207)">
 <use xlink:href="#E1-MJMAIN-3D" x="277" y="0"></use>
 <use xlink:href="#E1-MJMAIN-2212" x="1338" y="0"></use>
<g transform="translate(2121,0)">
<g transform="translate(120,0)">
<rect stroke="none" width="2363" height="60" x="0" y="220"></rect>
<g transform="translate(60,779)">
 <use xlink:href="#E1-MJMAIN-45" x="0" y="0"></use>
 <use transform="scale(0.707)" xlink:href="#E1-MJMATHI-3C4" x="970" y="-213"></use>
 <use xlink:href="#E1-MJMAIN-5B" x="1155" y="0"></use>
 <use xlink:href="#E1-MJMATHI-3C4" x="1438" y="0"></use>
 <use xlink:href="#E1-MJMAIN-5D" x="1960" y="0"></use>
</g>
 <use xlink:href="#E1-MJMAIN-32" x="929" y="-696"></use>
</g>
</g>
<g transform="translate(4891,0)">
 <use xlink:href="#E1-MJSZ4-7B"></use>
<g transform="translate(811,0)">
 <use xlink:href="#E1-MJSZ2-2211" x="0" y="0"></use>
<g transform="translate(55,-1105)">
 <use transform="scale(0.707)" xlink:href="#E1-MJMATHI-6E" x="0" y="0"></use>
 <use transform="scale(0.707)" xlink:href="#E1-MJMAIN-3D" x="605" y="0"></use>
 <use transform="scale(0.707)" xlink:href="#E1-MJMAIN-31" x="1388" y="0"></use>
</g>
 <use transform="scale(0.707)" xlink:href="#E1-MJMATHI-4E" x="578" y="1640"></use>
</g>
 <use xlink:href="#E1-MJMAIN-28" x="2260" y="0"></use>
<g transform="translate(2654,0)">
 <use xlink:href="#E1-MJMATHI-78" x="0" y="0"></use>
 <use transform="scale(0.707)" xlink:href="#E1-MJMAIN-32" x="816" y="497"></use>
 <use transform="scale(0.707)" xlink:href="#E1-MJMATHI-6E" x="816" y="-221"></use>
</g>
 <use xlink:href="#E1-MJMAIN-2212" x="3981" y="0"></use>
 <use xlink:href="#E1-MJMAIN-32" x="4986" y="0"></use>
<g transform="translate(5491,0)">
 <use xlink:href="#E1-MJMATHI-78" x="0" y="0"></use>
 <use transform="scale(0.707)" xlink:href="#E1-MJMATHI-6E" x="816" y="-213"></use>
</g>
 <use xlink:href="#E1-MJMATHI-3BC" x="6596" y="0"></use>
 <use xlink:href="#E1-MJMAIN-2B" x="7426" y="0"></use>
<g transform="translate(8431,0)">
 <use xlink:href="#E1-MJMATHI-3BC" x="0" y="0"></use>
 <use transform="scale(0.707)" xlink:href="#E1-MJMAIN-32" x="859" y="583"></use>
</g>
 <use xlink:href="#E1-MJMAIN-29" x="9496" y="0"></use>
 <use xlink:href="#E1-MJMAIN-2B" x="10112" y="0"></use>
<g transform="translate(11118,0)">
 <use xlink:href="#E1-MJMATHI-3BB" x="0" y="0"></use>
 <use transform="scale(0.707)" xlink:href="#E1-MJMAIN-30" x="831" y="-213"></use>
</g>
 <use xlink:href="#E1-MJMAIN-28" x="12163" y="0"></use>
<g transform="translate(12557,0)">
 <use xlink:href="#E1-MJMATHI-3BC" x="0" y="0"></use>
 <use transform="scale(0.707)" xlink:href="#E1-MJMAIN-32" x="859" y="583"></use>
</g>
 <use xlink:href="#E1-MJMAIN-2212" x="13844" y="0"></use>
 <use xlink:href="#E1-MJMAIN-32" x="14849" y="0"></use>
<g transform="translate(15354,0)">
 <use xlink:href="#E1-MJMATHI-3BC" x="0" y="0"></use>
 <use transform="scale(0.707)" xlink:href="#E1-MJMAIN-30" x="859" y="-213"></use>
</g>
 <use xlink:href="#E1-MJMATHI-3BC" x="16419" y="0"></use>
 <use xlink:href="#E1-MJMAIN-2B" x="17249" y="0"></use>
<g transform="translate(18255,0)">
 <use xlink:href="#E1-MJMATHI-3BC" x="0" y="0"></use>
 <use transform="scale(0.707)" xlink:href="#E1-MJMAIN-32" x="859" y="497"></use>
 <use transform="scale(0.707)" xlink:href="#E1-MJMAIN-30" x="859" y="-444"></use>
</g>
 <use xlink:href="#E1-MJMAIN-29" x="19320" y="0"></use>
 <use xlink:href="#E1-MJSZ4-7D" x="19714" y="-1"></use>
</g>
 <use xlink:href="#E1-MJMAIN-2B" x="25638" y="0"></use>
<g transform="translate(26644,0)">
 <use xlink:href="#E1-MJMATHI-43" x="0" y="0"></use>
 <use transform="scale(0.707)" xlink:href="#E1-MJMAIN-33" x="1018" y="-213"></use>
</g>
</g>
<g transform="translate(0,10888)">
 <use xlink:href="#E1-MJMAIN-3D" x="277" y="0"></use>
 <use xlink:href="#E1-MJMAIN-2212" x="1338" y="0"></use>
<g transform="translate(2121,0)">
<g transform="translate(120,0)">
<rect stroke="none" width="2363" height="60" x="0" y="220"></rect>
<g transform="translate(60,779)">
 <use xlink:href="#E1-MJMAIN-45" x="0" y="0"></use>
 <use transform="scale(0.707)" xlink:href="#E1-MJMATHI-3C4" x="970" y="-213"></use>
 <use xlink:href="#E1-MJMAIN-5B" x="1155" y="0"></use>
 <use xlink:href="#E1-MJMATHI-3C4" x="1438" y="0"></use>
 <use xlink:href="#E1-MJMAIN-5D" x="1960" y="0"></use>
</g>
 <use xlink:href="#E1-MJMAIN-32" x="929" y="-696"></use>
</g>
</g>
<g transform="translate(4891,0)">
 <use xlink:href="#E1-MJSZ4-7B"></use>
<g transform="translate(811,0)">
 <use xlink:href="#E1-MJSZ4-28"></use>
<g transform="translate(797,0)">
 <use xlink:href="#E1-MJSZ2-2211" x="0" y="0"></use>
<g transform="translate(55,-1105)">
 <use transform="scale(0.707)" xlink:href="#E1-MJMATHI-6E" x="0" y="0"></use>
 <use transform="scale(0.707)" xlink:href="#E1-MJMAIN-3D" x="605" y="0"></use>
 <use transform="scale(0.707)" xlink:href="#E1-MJMAIN-31" x="1388" y="0"></use>
</g>
 <use transform="scale(0.707)" xlink:href="#E1-MJMATHI-4E" x="578" y="1640"></use>
</g>
<g transform="translate(2412,0)">
 <use xlink:href="#E1-MJMATHI-78" x="0" y="0"></use>
 <use transform="scale(0.707)" xlink:href="#E1-MJMAIN-32" x="816" y="497"></use>
 <use transform="scale(0.707)" xlink:href="#E1-MJMATHI-6E" x="816" y="-221"></use>
</g>
 <use xlink:href="#E1-MJSZ4-29" x="3517" y="0"></use>
</g>
 <use xlink:href="#E1-MJMAIN-2212" x="5347" y="0"></use>
 <use xlink:href="#E1-MJMAIN-32" x="6352" y="0"></use>
<g transform="translate(7024,0)">
 <use xlink:href="#E1-MJSZ4-28"></use>
<g transform="translate(797,0)">
 <use xlink:href="#E1-MJSZ2-2211" x="0" y="0"></use>
<g transform="translate(55,-1105)">
 <use transform="scale(0.707)" xlink:href="#E1-MJMATHI-6E" x="0" y="0"></use>
 <use transform="scale(0.707)" xlink:href="#E1-MJMAIN-3D" x="605" y="0"></use>
 <use transform="scale(0.707)" xlink:href="#E1-MJMAIN-31" x="1388" y="0"></use>
</g>
 <use transform="scale(0.707)" xlink:href="#E1-MJMATHI-4E" x="578" y="1640"></use>
</g>
<g transform="translate(2412,0)">
 <use xlink:href="#E1-MJMATHI-78" x="0" y="0"></use>
 <use transform="scale(0.707)" xlink:href="#E1-MJMATHI-6E" x="816" y="-213"></use>
</g>
 <use xlink:href="#E1-MJSZ4-29" x="3517" y="0"></use>
</g>
 <use xlink:href="#E1-MJMATHI-3BC" x="11505" y="0"></use>
 <use xlink:href="#E1-MJMAIN-2B" x="12335" y="0"></use>
<g transform="translate(13341,0)">
 <use xlink:href="#E1-MJSZ4-28"></use>
<g transform="translate(797,0)">
 <use xlink:href="#E1-MJSZ2-2211" x="0" y="0"></use>
<g transform="translate(55,-1105)">
 <use transform="scale(0.707)" xlink:href="#E1-MJMATHI-6E" x="0" y="0"></use>
 <use transform="scale(0.707)" xlink:href="#E1-MJMAIN-3D" x="605" y="0"></use>
 <use transform="scale(0.707)" xlink:href="#E1-MJMAIN-31" x="1388" y="0"></use>
</g>
 <use transform="scale(0.707)" xlink:href="#E1-MJMATHI-4E" x="578" y="1640"></use>
</g>
<g transform="translate(2412,0)">
 <use xlink:href="#E1-MJMATHI-3BC" x="0" y="0"></use>
 <use transform="scale(0.707)" xlink:href="#E1-MJMAIN-32" x="859" y="583"></use>
</g>
 <use xlink:href="#E1-MJSZ4-29" x="3477" y="0"></use>
</g>
 <use xlink:href="#E1-MJMAIN-2B" x="17838" y="0"></use>
<g transform="translate(18843,0)">
 <use xlink:href="#E1-MJMATHI-3BB" x="0" y="0"></use>
 <use transform="scale(0.707)" xlink:href="#E1-MJMAIN-30" x="831" y="-213"></use>
</g>
<g transform="translate(19888,0)">
 <use xlink:href="#E1-MJMATHI-3BC" x="0" y="0"></use>
 <use transform="scale(0.707)" xlink:href="#E1-MJMAIN-32" x="859" y="583"></use>
</g>
 <use xlink:href="#E1-MJMAIN-2212" x="21175" y="0"></use>
 <use xlink:href="#E1-MJMAIN-32" x="22180" y="0"></use>
<g transform="translate(22685,0)">
 <use xlink:href="#E1-MJMATHI-3BB" x="0" y="0"></use>
 <use transform="scale(0.707)" xlink:href="#E1-MJMAIN-30" x="831" y="-213"></use>
</g>
<g transform="translate(23731,0)">
 <use xlink:href="#E1-MJMATHI-3BC" x="0" y="0"></use>
 <use transform="scale(0.707)" xlink:href="#E1-MJMAIN-30" x="859" y="-213"></use>
</g>
 <use xlink:href="#E1-MJMATHI-3BC" x="24796" y="0"></use>
 <use xlink:href="#E1-MJMAIN-2B" x="25626" y="0"></use>
<g transform="translate(26631,0)">
 <use xlink:href="#E1-MJMATHI-3BB" x="0" y="0"></use>
 <use transform="scale(0.707)" xlink:href="#E1-MJMAIN-30" x="831" y="-213"></use>
</g>
<g transform="translate(27676,0)">
 <use xlink:href="#E1-MJMATHI-3BC" x="0" y="0"></use>
 <use transform="scale(0.707)" xlink:href="#E1-MJMAIN-32" x="859" y="497"></use>
 <use transform="scale(0.707)" xlink:href="#E1-MJMAIN-30" x="859" y="-444"></use>
</g>
 <use xlink:href="#E1-MJSZ4-7D" x="28741" y="-1"></use>
</g>
 <use xlink:href="#E1-MJMAIN-2B" x="34666" y="0"></use>
<g transform="translate(35671,0)">
 <use xlink:href="#E1-MJMATHI-43" x="0" y="0"></use>
 <use transform="scale(0.707)" xlink:href="#E1-MJMAIN-33" x="1018" y="-213"></use>
</g>
</g>
<g transform="translate(0,7568)">
 <use xlink:href="#E1-MJMAIN-3D" x="277" y="0"></use>
 <use xlink:href="#E1-MJMAIN-2212" x="1338" y="0"></use>
<g transform="translate(2121,0)">
<g transform="translate(120,0)">
<rect stroke="none" width="2363" height="60" x="0" y="220"></rect>
<g transform="translate(60,779)">
 <use xlink:href="#E1-MJMAIN-45" x="0" y="0"></use>
 <use transform="scale(0.707)" xlink:href="#E1-MJMATHI-3C4" x="970" y="-213"></use>
 <use xlink:href="#E1-MJMAIN-5B" x="1155" y="0"></use>
 <use xlink:href="#E1-MJMATHI-3C4" x="1438" y="0"></use>
 <use xlink:href="#E1-MJMAIN-5D" x="1960" y="0"></use>
</g>
 <use xlink:href="#E1-MJMAIN-32" x="929" y="-696"></use>
</g>
</g>
<g transform="translate(4891,0)">
 <use xlink:href="#E1-MJSZ4-7B"></use>
 <use xlink:href="#E1-MJMAIN-28" x="811" y="0"></use>
<g transform="translate(1205,0)">
 <use xlink:href="#E1-MJMATHI-3BB" x="0" y="0"></use>
 <use transform="scale(0.707)" xlink:href="#E1-MJMAIN-30" x="831" y="-213"></use>
</g>
 <use xlink:href="#E1-MJMAIN-2B" x="2472" y="0"></use>
 <use xlink:href="#E1-MJMATHI-4E" x="3477" y="0"></use>
 <use xlink:href="#E1-MJMAIN-29" x="4370" y="0"></use>
<g transform="translate(4764,0)">
 <use xlink:href="#E1-MJMATHI-3BC" x="0" y="0"></use>
 <use transform="scale(0.707)" xlink:href="#E1-MJMAIN-32" x="859" y="583"></use>
</g>
 <use xlink:href="#E1-MJMAIN-2212" x="6051" y="0"></use>
 <use xlink:href="#E1-MJMAIN-32" x="7057" y="0"></use>
<g transform="translate(7728,0)">
 <use xlink:href="#E1-MJSZ4-28"></use>
<g transform="translate(797,0)">
 <use xlink:href="#E1-MJMATHI-3BB" x="0" y="0"></use>
 <use transform="scale(0.707)" xlink:href="#E1-MJMAIN-30" x="831" y="-213"></use>
</g>
<g transform="translate(1842,0)">
 <use xlink:href="#E1-MJMATHI-3BC" x="0" y="0"></use>
 <use transform="scale(0.707)" xlink:href="#E1-MJMAIN-30" x="859" y="-213"></use>
</g>
 <use xlink:href="#E1-MJMAIN-2B" x="3129" y="0"></use>
<g transform="translate(4134,0)">
 <use xlink:href="#E1-MJSZ2-2211" x="0" y="0"></use>
<g transform="translate(55,-1105)">
 <use transform="scale(0.707)" xlink:href="#E1-MJMATHI-6E" x="0" y="0"></use>
 <use transform="scale(0.707)" xlink:href="#E1-MJMAIN-3D" x="605" y="0"></use>
 <use transform="scale(0.707)" xlink:href="#E1-MJMAIN-31" x="1388" y="0"></use>
</g>
 <use transform="scale(0.707)" xlink:href="#E1-MJMATHI-4E" x="578" y="1640"></use>
</g>
<g transform="translate(5750,0)">
 <use xlink:href="#E1-MJMATHI-78" x="0" y="0"></use>
 <use transform="scale(0.707)" xlink:href="#E1-MJMATHI-6E" x="816" y="-213"></use>
</g>
 <use xlink:href="#E1-MJSZ4-29" x="6855" y="0"></use>
</g>
 <use xlink:href="#E1-MJMATHI-3BC" x="15547" y="0"></use>
 <use xlink:href="#E1-MJMAIN-2B" x="16377" y="0"></use>
<g transform="translate(17382,0)">
 <use xlink:href="#E1-MJSZ4-28"></use>
<g transform="translate(797,0)">
 <use xlink:href="#E1-MJSZ2-2211" x="0" y="0"></use>
<g transform="translate(55,-1105)">
 <use transform="scale(0.707)" xlink:href="#E1-MJMATHI-6E" x="0" y="0"></use>
 <use transform="scale(0.707)" xlink:href="#E1-MJMAIN-3D" x="605" y="0"></use>
 <use transform="scale(0.707)" xlink:href="#E1-MJMAIN-31" x="1388" y="0"></use>
</g>
 <use transform="scale(0.707)" xlink:href="#E1-MJMATHI-4E" x="578" y="1640"></use>
</g>
<g transform="translate(2412,0)">
 <use xlink:href="#E1-MJMATHI-78" x="0" y="0"></use>
 <use transform="scale(0.707)" xlink:href="#E1-MJMAIN-32" x="816" y="497"></use>
 <use transform="scale(0.707)" xlink:href="#E1-MJMATHI-6E" x="816" y="-221"></use>
</g>
 <use xlink:href="#E1-MJSZ4-29" x="3517" y="0"></use>
</g>
 <use xlink:href="#E1-MJMAIN-2B" x="21919" y="0"></use>
<g transform="translate(22924,0)">
 <use xlink:href="#E1-MJMATHI-3BB" x="0" y="0"></use>
 <use transform="scale(0.707)" xlink:href="#E1-MJMAIN-30" x="831" y="-213"></use>
</g>
<g transform="translate(23969,0)">
 <use xlink:href="#E1-MJMATHI-3BC" x="0" y="0"></use>
 <use transform="scale(0.707)" xlink:href="#E1-MJMAIN-32" x="859" y="497"></use>
 <use transform="scale(0.707)" xlink:href="#E1-MJMAIN-30" x="859" y="-444"></use>
</g>
 <use xlink:href="#E1-MJSZ4-7D" x="25035" y="-1"></use>
</g>
 <use xlink:href="#E1-MJMAIN-2B" x="30959" y="0"></use>
<g transform="translate(31964,0)">
 <use xlink:href="#E1-MJMATHI-43" x="0" y="0"></use>
 <use transform="scale(0.707)" xlink:href="#E1-MJMAIN-33" x="1018" y="-213"></use>
</g>
</g>
<g transform="translate(0,4248)">
 <use xlink:href="#E1-MJMAIN-3D" x="277" y="0"></use>
 <use xlink:href="#E1-MJMAIN-2212" x="1338" y="0"></use>
<g transform="translate(2121,0)">
<g transform="translate(120,0)">
<rect stroke="none" width="2363" height="60" x="0" y="220"></rect>
<g transform="translate(60,779)">
 <use xlink:href="#E1-MJMAIN-45" x="0" y="0"></use>
 <use transform="scale(0.707)" xlink:href="#E1-MJMATHI-3C4" x="970" y="-213"></use>
 <use xlink:href="#E1-MJMAIN-5B" x="1155" y="0"></use>
 <use xlink:href="#E1-MJMATHI-3C4" x="1438" y="0"></use>
 <use xlink:href="#E1-MJMAIN-5D" x="1960" y="0"></use>
</g>
 <use xlink:href="#E1-MJMAIN-32" x="929" y="-696"></use>
</g>
</g>
<g transform="translate(4891,0)">
 <use xlink:href="#E1-MJSZ4-7B"></use>
 <use xlink:href="#E1-MJMAIN-28" x="811" y="0"></use>
<g transform="translate(1205,0)">
 <use xlink:href="#E1-MJMATHI-3BB" x="0" y="0"></use>
 <use transform="scale(0.707)" xlink:href="#E1-MJMAIN-30" x="831" y="-213"></use>
</g>
 <use xlink:href="#E1-MJMAIN-2B" x="2472" y="0"></use>
 <use xlink:href="#E1-MJMATHI-4E" x="3477" y="0"></use>
 <use xlink:href="#E1-MJMAIN-29" x="4370" y="0"></use>
<g transform="translate(4764,0)">
 <use xlink:href="#E1-MJMATHI-3BC" x="0" y="0"></use>
 <use transform="scale(0.707)" xlink:href="#E1-MJMAIN-32" x="859" y="583"></use>
</g>
 <use xlink:href="#E1-MJMAIN-2212" x="6051" y="0"></use>
 <use xlink:href="#E1-MJMAIN-32" x="7057" y="0"></use>
<g transform="translate(7728,0)">
 <use xlink:href="#E1-MJSZ4-28"></use>
<g transform="translate(797,0)">
 <use xlink:href="#E1-MJMATHI-3BB" x="0" y="0"></use>
 <use transform="scale(0.707)" xlink:href="#E1-MJMAIN-30" x="831" y="-213"></use>
</g>
<g transform="translate(1842,0)">
 <use xlink:href="#E1-MJMATHI-3BC" x="0" y="0"></use>
 <use transform="scale(0.707)" xlink:href="#E1-MJMAIN-30" x="859" y="-213"></use>
</g>
 <use xlink:href="#E1-MJMAIN-2B" x="3129" y="0"></use>
<g transform="translate(4134,0)">
 <use xlink:href="#E1-MJSZ2-2211" x="0" y="0"></use>
<g transform="translate(55,-1105)">
 <use transform="scale(0.707)" xlink:href="#E1-MJMATHI-6E" x="0" y="0"></use>
 <use transform="scale(0.707)" xlink:href="#E1-MJMAIN-3D" x="605" y="0"></use>
 <use transform="scale(0.707)" xlink:href="#E1-MJMAIN-31" x="1388" y="0"></use>
</g>
 <use transform="scale(0.707)" xlink:href="#E1-MJMATHI-4E" x="578" y="1640"></use>
</g>
<g transform="translate(5750,0)">
 <use xlink:href="#E1-MJMATHI-78" x="0" y="0"></use>
 <use transform="scale(0.707)" xlink:href="#E1-MJMATHI-6E" x="816" y="-213"></use>
</g>
 <use xlink:href="#E1-MJSZ4-29" x="6855" y="0"></use>
</g>
 <use xlink:href="#E1-MJMATHI-3BC" x="15547" y="0"></use>
 <use xlink:href="#E1-MJSZ4-7D" x="16155" y="-1"></use>
</g>
 <use xlink:href="#E1-MJMAIN-2B" x="22080" y="0"></use>
<g transform="translate(23085,0)">
 <use xlink:href="#E1-MJMATHI-43" x="0" y="0"></use>
 <use transform="scale(0.707)" xlink:href="#E1-MJMAIN-34" x="1018" y="-213"></use>
</g>
</g>
<g transform="translate(0,881)">
 <use xlink:href="#E1-MJMAIN-3D" x="277" y="0"></use>
 <use xlink:href="#E1-MJMAIN-2212" x="1338" y="0"></use>
<g transform="translate(2121,0)">
<g transform="translate(120,0)">
<rect stroke="none" width="2363" height="60" x="0" y="220"></rect>
<g transform="translate(60,779)">
 <use xlink:href="#E1-MJMAIN-45" x="0" y="0"></use>
 <use transform="scale(0.707)" xlink:href="#E1-MJMATHI-3C4" x="970" y="-213"></use>
 <use xlink:href="#E1-MJMAIN-5B" x="1155" y="0"></use>
 <use xlink:href="#E1-MJMATHI-3C4" x="1438" y="0"></use>
 <use xlink:href="#E1-MJMAIN-5D" x="1960" y="0"></use>
</g>
 <use xlink:href="#E1-MJMAIN-32" x="929" y="-696"></use>
</g>
</g>
<g transform="translate(4891,0)">
 <use xlink:href="#E1-MJSZ4-7B"></use>
 <use xlink:href="#E1-MJMAIN-28" x="811" y="0"></use>
<g transform="translate(1205,0)">
 <use xlink:href="#E1-MJMATHI-3BB" x="0" y="0"></use>
 <use transform="scale(0.707)" xlink:href="#E1-MJMAIN-30" x="831" y="-213"></use>
</g>
 <use xlink:href="#E1-MJMAIN-2B" x="2472" y="0"></use>
 <use xlink:href="#E1-MJMATHI-4E" x="3477" y="0"></use>
 <use xlink:href="#E1-MJMAIN-29" x="4370" y="0"></use>
<g transform="translate(4764,0)">
 <use xlink:href="#E1-MJMATHI-3BC" x="0" y="0"></use>
 <use transform="scale(0.707)" xlink:href="#E1-MJMAIN-32" x="859" y="583"></use>
</g>
 <use xlink:href="#E1-MJMAIN-2212" x="6051" y="0"></use>
 <use xlink:href="#E1-MJMAIN-32" x="7057" y="0"></use>
<g transform="translate(7728,0)">
 <use xlink:href="#E1-MJSZ4-28"></use>
<g transform="translate(797,0)">
<g transform="translate(120,0)">
<rect stroke="none" width="7228" height="60" x="0" y="220"></rect>
<g transform="translate(60,829)">
 <use xlink:href="#E1-MJMATHI-3BB" x="0" y="0"></use>
 <use transform="scale(0.707)" xlink:href="#E1-MJMAIN-30" x="831" y="-213"></use>
<g transform="translate(1045,0)">
 <use xlink:href="#E1-MJMATHI-3BC" x="0" y="0"></use>
 <use transform="scale(0.707)" xlink:href="#E1-MJMAIN-30" x="859" y="-213"></use>
</g>
 <use xlink:href="#E1-MJMAIN-2B" x="2332" y="0"></use>
<g transform="translate(3337,0)">
 <use xlink:href="#E1-MJSZ1-2211" x="0" y="0"></use>
 <use transform="scale(0.707)" xlink:href="#E1-MJMATHI-4E" x="1500" y="688"></use>
<g transform="translate(1061,-296)">
 <use transform="scale(0.707)" xlink:href="#E1-MJMATHI-6E" x="0" y="0"></use>
 <use transform="scale(0.707)" xlink:href="#E1-MJMAIN-3D" x="605" y="0"></use>
 <use transform="scale(0.707)" xlink:href="#E1-MJMAIN-31" x="1388" y="0"></use>
</g>
</g>
<g transform="translate(6003,0)">
 <use xlink:href="#E1-MJMATHI-78" x="0" y="0"></use>
 <use transform="scale(0.707)" xlink:href="#E1-MJMATHI-6E" x="816" y="-213"></use>
</g>
</g>
<g transform="translate(2031,-724)">
 <use xlink:href="#E1-MJMATHI-3BB" x="0" y="0"></use>
 <use transform="scale(0.707)" xlink:href="#E1-MJMAIN-30" x="831" y="-213"></use>
 <use xlink:href="#E1-MJMAIN-2B" x="1267" y="0"></use>
 <use xlink:href="#E1-MJMATHI-4E" x="2272" y="0"></use>
</g>
</g>
</g>
 <use xlink:href="#E1-MJSZ4-29" x="8265" y="0"></use>
</g>
 <use xlink:href="#E1-MJMAIN-28" x="16958" y="0"></use>
<g transform="translate(17352,0)">
 <use xlink:href="#E1-MJMATHI-3BB" x="0" y="0"></use>
 <use transform="scale(0.707)" xlink:href="#E1-MJMAIN-30" x="831" y="-213"></use>
</g>
 <use xlink:href="#E1-MJMAIN-2B" x="18619" y="0"></use>
 <use xlink:href="#E1-MJMATHI-4E" x="19624" y="0"></use>
 <use xlink:href="#E1-MJMAIN-29" x="20517" y="0"></use>
 <use xlink:href="#E1-MJMATHI-3BC" x="20911" y="0"></use>
 <use xlink:href="#E1-MJSZ4-7D" x="21519" y="-1"></use>
</g>
 <use xlink:href="#E1-MJMAIN-2B" x="27444" y="0"></use>
<g transform="translate(28449,0)">
 <use xlink:href="#E1-MJMATHI-43" x="0" y="0"></use>
 <use transform="scale(0.707)" xlink:href="#E1-MJMAIN-34" x="1018" y="-213"></use>
</g>
</g>
<g transform="translate(0,-2486)">
 <use xlink:href="#E1-MJMAIN-3D" x="277" y="0"></use>
 <use xlink:href="#E1-MJMAIN-2212" x="1338" y="0"></use>
<g transform="translate(2121,0)">
<g transform="translate(120,0)">
<rect stroke="none" width="2363" height="60" x="0" y="220"></rect>
<g transform="translate(60,779)">
 <use xlink:href="#E1-MJMAIN-45" x="0" y="0"></use>
 <use transform="scale(0.707)" xlink:href="#E1-MJMATHI-3C4" x="970" y="-213"></use>
 <use xlink:href="#E1-MJMAIN-5B" x="1155" y="0"></use>
 <use xlink:href="#E1-MJMATHI-3C4" x="1438" y="0"></use>
 <use xlink:href="#E1-MJMAIN-5D" x="1960" y="0"></use>
</g>
 <use xlink:href="#E1-MJMAIN-32" x="929" y="-696"></use>
</g>
</g>
<g transform="translate(4891,0)">
 <use xlink:href="#E1-MJSZ4-7B"></use>
 <use xlink:href="#E1-MJMAIN-28" x="811" y="0"></use>
<g transform="translate(1205,0)">
 <use xlink:href="#E1-MJMATHI-3BB" x="0" y="0"></use>
 <use transform="scale(0.707)" xlink:href="#E1-MJMAIN-30" x="831" y="-213"></use>
</g>
 <use xlink:href="#E1-MJMAIN-2B" x="2472" y="0"></use>
 <use xlink:href="#E1-MJMATHI-4E" x="3477" y="0"></use>
 <use xlink:href="#E1-MJMAIN-29" x="4370" y="0"></use>
<g transform="translate(4931,0)">
 <use xlink:href="#E1-MJSZ4-28"></use>
<g transform="translate(797,0)">
 <use xlink:href="#E1-MJMATHI-3BC" x="0" y="0"></use>
 <use transform="scale(0.707)" xlink:href="#E1-MJMAIN-32" x="859" y="583"></use>
</g>
 <use xlink:href="#E1-MJMAIN-2212" x="2084" y="0"></use>
 <use xlink:href="#E1-MJMAIN-32" x="3089" y="0"></use>
<g transform="translate(3761,0)">
 <use xlink:href="#E1-MJSZ4-28"></use>
<g transform="translate(797,0)">
<g transform="translate(120,0)">
<rect stroke="none" width="7228" height="60" x="0" y="220"></rect>
<g transform="translate(60,829)">
 <use xlink:href="#E1-MJMATHI-3BB" x="0" y="0"></use>
 <use transform="scale(0.707)" xlink:href="#E1-MJMAIN-30" x="831" y="-213"></use>
<g transform="translate(1045,0)">
 <use xlink:href="#E1-MJMATHI-3BC" x="0" y="0"></use>
 <use transform="scale(0.707)" xlink:href="#E1-MJMAIN-30" x="859" y="-213"></use>
</g>
 <use xlink:href="#E1-MJMAIN-2B" x="2332" y="0"></use>
<g transform="translate(3337,0)">
 <use xlink:href="#E1-MJSZ1-2211" x="0" y="0"></use>
 <use transform="scale(0.707)" xlink:href="#E1-MJMATHI-4E" x="1500" y="688"></use>
<g transform="translate(1061,-296)">
 <use transform="scale(0.707)" xlink:href="#E1-MJMATHI-6E" x="0" y="0"></use>
 <use transform="scale(0.707)" xlink:href="#E1-MJMAIN-3D" x="605" y="0"></use>
 <use transform="scale(0.707)" xlink:href="#E1-MJMAIN-31" x="1388" y="0"></use>
</g>
</g>
<g transform="translate(6003,0)">
 <use xlink:href="#E1-MJMATHI-78" x="0" y="0"></use>
 <use transform="scale(0.707)" xlink:href="#E1-MJMATHI-6E" x="816" y="-213"></use>
</g>
</g>
<g transform="translate(2031,-724)">
 <use xlink:href="#E1-MJMATHI-3BB" x="0" y="0"></use>
 <use transform="scale(0.707)" xlink:href="#E1-MJMAIN-30" x="831" y="-213"></use>
 <use xlink:href="#E1-MJMAIN-2B" x="1267" y="0"></use>
 <use xlink:href="#E1-MJMATHI-4E" x="2272" y="0"></use>
</g>
</g>
</g>
 <use xlink:href="#E1-MJSZ4-29" x="8265" y="0"></use>
</g>
 <use xlink:href="#E1-MJMATHI-3BC" x="12990" y="0"></use>
 <use xlink:href="#E1-MJSZ4-29" x="13598" y="0"></use>
</g>
 <use xlink:href="#E1-MJSZ4-7D" x="19326" y="-1"></use>
</g>
 <use xlink:href="#E1-MJMAIN-2B" x="25251" y="0"></use>
<g transform="translate(26256,0)">
 <use xlink:href="#E1-MJMATHI-43" x="0" y="0"></use>
 <use transform="scale(0.707)" xlink:href="#E1-MJMAIN-34" x="1018" y="-213"></use>
</g>
</g>
<g transform="translate(0,-6057)">
 <use xlink:href="#E1-MJMAIN-3D" x="277" y="0"></use>
 <use xlink:href="#E1-MJMAIN-2212" x="1338" y="0"></use>
<g transform="translate(2121,0)">
<g transform="translate(120,0)">
<rect stroke="none" width="2363" height="60" x="0" y="220"></rect>
<g transform="translate(60,779)">
 <use xlink:href="#E1-MJMAIN-45" x="0" y="0"></use>
 <use transform="scale(0.707)" xlink:href="#E1-MJMATHI-3C4" x="970" y="-213"></use>
 <use xlink:href="#E1-MJMAIN-5B" x="1155" y="0"></use>
 <use xlink:href="#E1-MJMATHI-3C4" x="1438" y="0"></use>
 <use xlink:href="#E1-MJMAIN-5D" x="1960" y="0"></use>
</g>
 <use xlink:href="#E1-MJMAIN-32" x="929" y="-696"></use>
</g>
</g>
<g transform="translate(4891,0)">
<g transform="translate(0,2011)">
 <use xlink:href="#E1-MJSZ4-23A7" x="0" y="-909"></use>
 <use xlink:href="#E1-MJSZ4-23A8" x="0" y="-2012"></use>
 <use xlink:href="#E1-MJSZ4-23A9" x="0" y="-2615"></use>
</g>
 <use xlink:href="#E1-MJMAIN-28" x="894" y="0"></use>
<g transform="translate(1288,0)">
 <use xlink:href="#E1-MJMATHI-3BB" x="0" y="0"></use>
 <use transform="scale(0.707)" xlink:href="#E1-MJMAIN-30" x="831" y="-213"></use>
</g>
 <use xlink:href="#E1-MJMAIN-2B" x="2555" y="0"></use>
 <use xlink:href="#E1-MJMATHI-4E" x="3560" y="0"></use>
 <use xlink:href="#E1-MJMAIN-29" x="4453" y="0"></use>
<g transform="translate(5014,0)">
<g transform="translate(0,2011)">
 <use xlink:href="#E1-MJSZ4-239B" x="0" y="-1165"></use>
 <use xlink:href="#E1-MJSZ4-239D" x="0" y="-2870"></use>
</g>
<g transform="translate(880,0)">
 <use xlink:href="#E1-MJMATHI-3BC" x="0" y="0"></use>
 <use transform="scale(0.707)" xlink:href="#E1-MJMAIN-32" x="859" y="583"></use>
</g>
 <use xlink:href="#E1-MJMAIN-2212" x="2167" y="0"></use>
 <use xlink:href="#E1-MJMAIN-32" x="3172" y="0"></use>
<g transform="translate(3844,0)">
 <use xlink:href="#E1-MJSZ4-28"></use>
<g transform="translate(797,0)">
<g transform="translate(120,0)">
<rect stroke="none" width="7228" height="60" x="0" y="220"></rect>
<g transform="translate(60,829)">
 <use xlink:href="#E1-MJMATHI-3BB" x="0" y="0"></use>
 <use transform="scale(0.707)" xlink:href="#E1-MJMAIN-30" x="831" y="-213"></use>
<g transform="translate(1045,0)">
 <use xlink:href="#E1-MJMATHI-3BC" x="0" y="0"></use>
 <use transform="scale(0.707)" xlink:href="#E1-MJMAIN-30" x="859" y="-213"></use>
</g>
 <use xlink:href="#E1-MJMAIN-2B" x="2332" y="0"></use>
<g transform="translate(3337,0)">
 <use xlink:href="#E1-MJSZ1-2211" x="0" y="0"></use>
 <use transform="scale(0.707)" xlink:href="#E1-MJMATHI-4E" x="1500" y="688"></use>
<g transform="translate(1061,-296)">
 <use transform="scale(0.707)" xlink:href="#E1-MJMATHI-6E" x="0" y="0"></use>
 <use transform="scale(0.707)" xlink:href="#E1-MJMAIN-3D" x="605" y="0"></use>
 <use transform="scale(0.707)" xlink:href="#E1-MJMAIN-31" x="1388" y="0"></use>
</g>
</g>
<g transform="translate(6003,0)">
 <use xlink:href="#E1-MJMATHI-78" x="0" y="0"></use>
 <use transform="scale(0.707)" xlink:href="#E1-MJMATHI-6E" x="816" y="-213"></use>
</g>
</g>
<g transform="translate(2031,-724)">
 <use xlink:href="#E1-MJMATHI-3BB" x="0" y="0"></use>
 <use transform="scale(0.707)" xlink:href="#E1-MJMAIN-30" x="831" y="-213"></use>
 <use xlink:href="#E1-MJMAIN-2B" x="1267" y="0"></use>
 <use xlink:href="#E1-MJMATHI-4E" x="2272" y="0"></use>
</g>
</g>
</g>
 <use xlink:href="#E1-MJSZ4-29" x="8265" y="0"></use>
</g>
 <use xlink:href="#E1-MJMATHI-3BC" x="13073" y="0"></use>
 <use xlink:href="#E1-MJMAIN-2B" x="13903" y="0"></use>
<g transform="translate(14908,0)">
 <use xlink:href="#E1-MJSZ4-28"></use>
<g transform="translate(797,0)">
<g transform="translate(120,0)">
<rect stroke="none" width="7228" height="60" x="0" y="220"></rect>
<g transform="translate(60,829)">
 <use xlink:href="#E1-MJMATHI-3BB" x="0" y="0"></use>
 <use transform="scale(0.707)" xlink:href="#E1-MJMAIN-30" x="831" y="-213"></use>
<g transform="translate(1045,0)">
 <use xlink:href="#E1-MJMATHI-3BC" x="0" y="0"></use>
 <use transform="scale(0.707)" xlink:href="#E1-MJMAIN-30" x="859" y="-213"></use>
</g>
 <use xlink:href="#E1-MJMAIN-2B" x="2332" y="0"></use>
<g transform="translate(3337,0)">
 <use xlink:href="#E1-MJSZ1-2211" x="0" y="0"></use>
 <use transform="scale(0.707)" xlink:href="#E1-MJMATHI-4E" x="1500" y="688"></use>
<g transform="translate(1061,-296)">
 <use transform="scale(0.707)" xlink:href="#E1-MJMATHI-6E" x="0" y="0"></use>
 <use transform="scale(0.707)" xlink:href="#E1-MJMAIN-3D" x="605" y="0"></use>
 <use transform="scale(0.707)" xlink:href="#E1-MJMAIN-31" x="1388" y="0"></use>
</g>
</g>
<g transform="translate(6003,0)">
 <use xlink:href="#E1-MJMATHI-78" x="0" y="0"></use>
 <use transform="scale(0.707)" xlink:href="#E1-MJMATHI-6E" x="816" y="-213"></use>
</g>
</g>
<g transform="translate(2031,-724)">
 <use xlink:href="#E1-MJMATHI-3BB" x="0" y="0"></use>
 <use transform="scale(0.707)" xlink:href="#E1-MJMAIN-30" x="831" y="-213"></use>
 <use xlink:href="#E1-MJMAIN-2B" x="1267" y="0"></use>
 <use xlink:href="#E1-MJMATHI-4E" x="2272" y="0"></use>
</g>
</g>
</g>
 <use xlink:href="#E1-MJSZ4-29" x="8265" y="0"></use>
 <use transform="scale(0.707)" xlink:href="#E1-MJMAIN-32" x="12816" y="2168"></use>
</g>
 <use xlink:href="#E1-MJMAIN-2212" x="24650" y="0"></use>
<g transform="translate(25656,0)">
 <use xlink:href="#E1-MJSZ4-28"></use>
<g transform="translate(797,0)">
<g transform="translate(120,0)">
<rect stroke="none" width="7228" height="60" x="0" y="220"></rect>
<g transform="translate(60,829)">
 <use xlink:href="#E1-MJMATHI-3BB" x="0" y="0"></use>
 <use transform="scale(0.707)" xlink:href="#E1-MJMAIN-30" x="831" y="-213"></use>
<g transform="translate(1045,0)">
 <use xlink:href="#E1-MJMATHI-3BC" x="0" y="0"></use>
 <use transform="scale(0.707)" xlink:href="#E1-MJMAIN-30" x="859" y="-213"></use>
</g>
 <use xlink:href="#E1-MJMAIN-2B" x="2332" y="0"></use>
<g transform="translate(3337,0)">
 <use xlink:href="#E1-MJSZ1-2211" x="0" y="0"></use>
 <use transform="scale(0.707)" xlink:href="#E1-MJMATHI-4E" x="1500" y="688"></use>
<g transform="translate(1061,-296)">
 <use transform="scale(0.707)" xlink:href="#E1-MJMATHI-6E" x="0" y="0"></use>
 <use transform="scale(0.707)" xlink:href="#E1-MJMAIN-3D" x="605" y="0"></use>
 <use transform="scale(0.707)" xlink:href="#E1-MJMAIN-31" x="1388" y="0"></use>
</g>
</g>
<g transform="translate(6003,0)">
 <use xlink:href="#E1-MJMATHI-78" x="0" y="0"></use>
 <use transform="scale(0.707)" xlink:href="#E1-MJMATHI-6E" x="816" y="-213"></use>
</g>
</g>
<g transform="translate(2031,-724)">
 <use xlink:href="#E1-MJMATHI-3BB" x="0" y="0"></use>
 <use transform="scale(0.707)" xlink:href="#E1-MJMAIN-30" x="831" y="-213"></use>
 <use xlink:href="#E1-MJMAIN-2B" x="1267" y="0"></use>
 <use xlink:href="#E1-MJMATHI-4E" x="2272" y="0"></use>
</g>
</g>
</g>
 <use xlink:href="#E1-MJSZ4-29" x="8265" y="0"></use>
 <use transform="scale(0.707)" xlink:href="#E1-MJMAIN-32" x="12816" y="2168"></use>
</g>
<g transform="translate(35175,2011)">
 <use xlink:href="#E1-MJSZ4-239E" x="0" y="-1164"></use>
 <use xlink:href="#E1-MJSZ4-23A0" x="0" y="-2870"></use>
</g>
</g>
<g transform="translate(41070,2011)">
 <use xlink:href="#E1-MJSZ4-23AB" x="0" y="-909"></use>
 <use xlink:href="#E1-MJSZ4-23AC" x="0" y="-2012"></use>
 <use xlink:href="#E1-MJSZ4-23AD" x="0" y="-2615"></use>
</g>
</g>
 <use xlink:href="#E1-MJMAIN-2B" x="47077" y="0"></use>
<g transform="translate(48082,0)">
 <use xlink:href="#E1-MJMATHI-43" x="0" y="0"></use>
 <use transform="scale(0.707)" xlink:href="#E1-MJMAIN-34" x="1018" y="-213"></use>
</g>
</g>
<g transform="translate(0,-9880)">
 <use xlink:href="#E1-MJMAIN-3D" x="277" y="0"></use>
 <use xlink:href="#E1-MJMAIN-2212" x="1338" y="0"></use>
<g transform="translate(2121,0)">
<g transform="translate(120,0)">
<rect stroke="none" width="2363" height="60" x="0" y="220"></rect>
<g transform="translate(60,779)">
 <use xlink:href="#E1-MJMAIN-45" x="0" y="0"></use>
 <use transform="scale(0.707)" xlink:href="#E1-MJMATHI-3C4" x="970" y="-213"></use>
 <use xlink:href="#E1-MJMAIN-5B" x="1155" y="0"></use>
 <use xlink:href="#E1-MJMATHI-3C4" x="1438" y="0"></use>
 <use xlink:href="#E1-MJMAIN-5D" x="1960" y="0"></use>
</g>
 <use xlink:href="#E1-MJMAIN-32" x="929" y="-696"></use>
</g>
</g>
<g transform="translate(4891,0)">
<g transform="translate(0,2011)">
 <use xlink:href="#E1-MJSZ4-23A7" x="0" y="-909"></use>
 <use xlink:href="#E1-MJSZ4-23A8" x="0" y="-2012"></use>
 <use xlink:href="#E1-MJSZ4-23A9" x="0" y="-2615"></use>
</g>
 <use xlink:href="#E1-MJMAIN-28" x="894" y="0"></use>
<g transform="translate(1288,0)">
 <use xlink:href="#E1-MJMATHI-3BB" x="0" y="0"></use>
 <use transform="scale(0.707)" xlink:href="#E1-MJMAIN-30" x="831" y="-213"></use>
</g>
 <use xlink:href="#E1-MJMAIN-2B" x="2555" y="0"></use>
 <use xlink:href="#E1-MJMATHI-4E" x="3560" y="0"></use>
 <use xlink:href="#E1-MJMAIN-29" x="4453" y="0"></use>
<g transform="translate(5014,0)">
<g transform="translate(0,2011)">
 <use xlink:href="#E1-MJSZ4-239B" x="0" y="-1165"></use>
 <use xlink:href="#E1-MJSZ4-239D" x="0" y="-2870"></use>
</g>
<g transform="translate(880,0)">
 <use xlink:href="#E1-MJMATHI-3BC" x="0" y="0"></use>
 <use transform="scale(0.707)" xlink:href="#E1-MJMAIN-32" x="859" y="583"></use>
</g>
 <use xlink:href="#E1-MJMAIN-2212" x="2167" y="0"></use>
 <use xlink:href="#E1-MJMAIN-32" x="3172" y="0"></use>
<g transform="translate(3844,0)">
 <use xlink:href="#E1-MJSZ4-28"></use>
<g transform="translate(797,0)">
<g transform="translate(120,0)">
<rect stroke="none" width="7228" height="60" x="0" y="220"></rect>
<g transform="translate(60,829)">
 <use xlink:href="#E1-MJMATHI-3BB" x="0" y="0"></use>
 <use transform="scale(0.707)" xlink:href="#E1-MJMAIN-30" x="831" y="-213"></use>
<g transform="translate(1045,0)">
 <use xlink:href="#E1-MJMATHI-3BC" x="0" y="0"></use>
 <use transform="scale(0.707)" xlink:href="#E1-MJMAIN-30" x="859" y="-213"></use>
</g>
 <use xlink:href="#E1-MJMAIN-2B" x="2332" y="0"></use>
<g transform="translate(3337,0)">
 <use xlink:href="#E1-MJSZ1-2211" x="0" y="0"></use>
 <use transform="scale(0.707)" xlink:href="#E1-MJMATHI-4E" x="1500" y="688"></use>
<g transform="translate(1061,-296)">
 <use transform="scale(0.707)" xlink:href="#E1-MJMATHI-6E" x="0" y="0"></use>
 <use transform="scale(0.707)" xlink:href="#E1-MJMAIN-3D" x="605" y="0"></use>
 <use transform="scale(0.707)" xlink:href="#E1-MJMAIN-31" x="1388" y="0"></use>
</g>
</g>
<g transform="translate(6003,0)">
 <use xlink:href="#E1-MJMATHI-78" x="0" y="0"></use>
 <use transform="scale(0.707)" xlink:href="#E1-MJMATHI-6E" x="816" y="-213"></use>
</g>
</g>
<g transform="translate(2031,-724)">
 <use xlink:href="#E1-MJMATHI-3BB" x="0" y="0"></use>
 <use transform="scale(0.707)" xlink:href="#E1-MJMAIN-30" x="831" y="-213"></use>
 <use xlink:href="#E1-MJMAIN-2B" x="1267" y="0"></use>
 <use xlink:href="#E1-MJMATHI-4E" x="2272" y="0"></use>
</g>
</g>
</g>
 <use xlink:href="#E1-MJSZ4-29" x="8265" y="0"></use>
</g>
 <use xlink:href="#E1-MJMATHI-3BC" x="13073" y="0"></use>
 <use xlink:href="#E1-MJMAIN-2B" x="13903" y="0"></use>
<g transform="translate(14908,0)">
 <use xlink:href="#E1-MJSZ4-28"></use>
<g transform="translate(797,0)">
<g transform="translate(120,0)">
<rect stroke="none" width="7228" height="60" x="0" y="220"></rect>
<g transform="translate(60,829)">
 <use xlink:href="#E1-MJMATHI-3BB" x="0" y="0"></use>
 <use transform="scale(0.707)" xlink:href="#E1-MJMAIN-30" x="831" y="-213"></use>
<g transform="translate(1045,0)">
 <use xlink:href="#E1-MJMATHI-3BC" x="0" y="0"></use>
 <use transform="scale(0.707)" xlink:href="#E1-MJMAIN-30" x="859" y="-213"></use>
</g>
 <use xlink:href="#E1-MJMAIN-2B" x="2332" y="0"></use>
<g transform="translate(3337,0)">
 <use xlink:href="#E1-MJSZ1-2211" x="0" y="0"></use>
 <use transform="scale(0.707)" xlink:href="#E1-MJMATHI-4E" x="1500" y="688"></use>
<g transform="translate(1061,-296)">
 <use transform="scale(0.707)" xlink:href="#E1-MJMATHI-6E" x="0" y="0"></use>
 <use transform="scale(0.707)" xlink:href="#E1-MJMAIN-3D" x="605" y="0"></use>
 <use transform="scale(0.707)" xlink:href="#E1-MJMAIN-31" x="1388" y="0"></use>
</g>
</g>
<g transform="translate(6003,0)">
 <use xlink:href="#E1-MJMATHI-78" x="0" y="0"></use>
 <use transform="scale(0.707)" xlink:href="#E1-MJMATHI-6E" x="816" y="-213"></use>
</g>
</g>
<g transform="translate(2031,-724)">
 <use xlink:href="#E1-MJMATHI-3BB" x="0" y="0"></use>
 <use transform="scale(0.707)" xlink:href="#E1-MJMAIN-30" x="831" y="-213"></use>
 <use xlink:href="#E1-MJMAIN-2B" x="1267" y="0"></use>
 <use xlink:href="#E1-MJMATHI-4E" x="2272" y="0"></use>
</g>
</g>
</g>
 <use xlink:href="#E1-MJSZ4-29" x="8265" y="0"></use>
 <use transform="scale(0.707)" xlink:href="#E1-MJMAIN-32" x="12816" y="2168"></use>
</g>
<g transform="translate(24428,2011)">
 <use xlink:href="#E1-MJSZ4-239E" x="0" y="-1164"></use>
 <use xlink:href="#E1-MJSZ4-23A0" x="0" y="-2870"></use>
</g>
</g>
<g transform="translate(30322,2011)">
 <use xlink:href="#E1-MJSZ4-23AB" x="0" y="-909"></use>
 <use xlink:href="#E1-MJSZ4-23AC" x="0" y="-2012"></use>
 <use xlink:href="#E1-MJSZ4-23AD" x="0" y="-2615"></use>
</g>
</g>
 <use xlink:href="#E1-MJMAIN-2B" x="36330" y="0"></use>
<g transform="translate(37335,0)">
 <use xlink:href="#E1-MJMATHI-43" x="0" y="0"></use>
 <use transform="scale(0.707)" xlink:href="#E1-MJMAIN-35" x="1018" y="-213"></use>
</g>
</g>
<g transform="translate(0,-13703)">
 <use xlink:href="#E1-MJMAIN-3D" x="277" y="0"></use>
 <use xlink:href="#E1-MJMAIN-2212" x="1338" y="0"></use>
<g transform="translate(2121,0)">
<g transform="translate(120,0)">
<rect stroke="none" width="2363" height="60" x="0" y="220"></rect>
<g transform="translate(60,779)">
 <use xlink:href="#E1-MJMAIN-45" x="0" y="0"></use>
 <use transform="scale(0.707)" xlink:href="#E1-MJMATHI-3C4" x="970" y="-213"></use>
 <use xlink:href="#E1-MJMAIN-5B" x="1155" y="0"></use>
 <use xlink:href="#E1-MJMATHI-3C4" x="1438" y="0"></use>
 <use xlink:href="#E1-MJMAIN-5D" x="1960" y="0"></use>
</g>
 <use xlink:href="#E1-MJMAIN-32" x="929" y="-696"></use>
</g>
</g>
<g transform="translate(4891,0)">
<g transform="translate(0,2011)">
 <use xlink:href="#E1-MJSZ4-23A7" x="0" y="-909"></use>
 <use xlink:href="#E1-MJSZ4-23A8" x="0" y="-2012"></use>
 <use xlink:href="#E1-MJSZ4-23A9" x="0" y="-2615"></use>
</g>
 <use xlink:href="#E1-MJMAIN-28" x="894" y="0"></use>
<g transform="translate(1288,0)">
 <use xlink:href="#E1-MJMATHI-3BB" x="0" y="0"></use>
 <use transform="scale(0.707)" xlink:href="#E1-MJMAIN-30" x="831" y="-213"></use>
</g>
 <use xlink:href="#E1-MJMAIN-2B" x="2555" y="0"></use>
 <use xlink:href="#E1-MJMATHI-4E" x="3560" y="0"></use>
 <use xlink:href="#E1-MJMAIN-29" x="4453" y="0"></use>
<g transform="translate(4847,0)">
 <use xlink:href="#E1-MJSZ4-28"></use>
 <use xlink:href="#E1-MJMATHI-3BC" x="797" y="0"></use>
 <use xlink:href="#E1-MJMAIN-2212" x="1627" y="0"></use>
<g transform="translate(2632,0)">
<g transform="translate(120,0)">
<rect stroke="none" width="7228" height="60" x="0" y="220"></rect>
<g transform="translate(60,829)">
 <use xlink:href="#E1-MJMATHI-3BB" x="0" y="0"></use>
 <use transform="scale(0.707)" xlink:href="#E1-MJMAIN-30" x="831" y="-213"></use>
<g transform="translate(1045,0)">
 <use xlink:href="#E1-MJMATHI-3BC" x="0" y="0"></use>
 <use transform="scale(0.707)" xlink:href="#E1-MJMAIN-30" x="859" y="-213"></use>
</g>
 <use xlink:href="#E1-MJMAIN-2B" x="2332" y="0"></use>
<g transform="translate(3337,0)">
 <use xlink:href="#E1-MJSZ1-2211" x="0" y="0"></use>
 <use transform="scale(0.707)" xlink:href="#E1-MJMATHI-4E" x="1500" y="688"></use>
<g transform="translate(1061,-296)">
 <use transform="scale(0.707)" xlink:href="#E1-MJMATHI-6E" x="0" y="0"></use>
 <use transform="scale(0.707)" xlink:href="#E1-MJMAIN-3D" x="605" y="0"></use>
 <use transform="scale(0.707)" xlink:href="#E1-MJMAIN-31" x="1388" y="0"></use>
</g>
</g>
<g transform="translate(6003,0)">
 <use xlink:href="#E1-MJMATHI-78" x="0" y="0"></use>
 <use transform="scale(0.707)" xlink:href="#E1-MJMATHI-6E" x="816" y="-213"></use>
</g>
</g>
<g transform="translate(2031,-724)">
 <use xlink:href="#E1-MJMATHI-3BB" x="0" y="0"></use>
 <use transform="scale(0.707)" xlink:href="#E1-MJMAIN-30" x="831" y="-213"></use>
 <use xlink:href="#E1-MJMAIN-2B" x="1267" y="0"></use>
 <use xlink:href="#E1-MJMATHI-4E" x="2272" y="0"></use>
</g>
</g>
</g>
 <use xlink:href="#E1-MJSZ4-29" x="10101" y="0"></use>
 <use transform="scale(0.707)" xlink:href="#E1-MJMAIN-32" x="15412" y="2168"></use>
</g>
<g transform="translate(16202,2011)">
 <use xlink:href="#E1-MJSZ4-23AB" x="0" y="-909"></use>
 <use xlink:href="#E1-MJSZ4-23AC" x="0" y="-2012"></use>
 <use xlink:href="#E1-MJSZ4-23AD" x="0" y="-2615"></use>
</g>
</g>
 <use xlink:href="#E1-MJMAIN-2B" x="22210" y="0"></use>
<g transform="translate(23215,0)">
 <use xlink:href="#E1-MJMATHI-43" x="0" y="0"></use>
 <use transform="scale(0.707)" xlink:href="#E1-MJMAIN-35" x="1018" y="-213"></use>
</g>
</g>
<g transform="translate(0,-17527)">
 <use xlink:href="#E1-MJMAIN-3D" x="277" y="0"></use>
 <use xlink:href="#E1-MJMAIN-2212" x="1338" y="0"></use>
<g transform="translate(2121,0)">
<g transform="translate(120,0)">
<rect stroke="none" width="625" height="60" x="0" y="220"></rect>
 <use xlink:href="#E1-MJMAIN-31" x="60" y="676"></use>
 <use xlink:href="#E1-MJMAIN-32" x="60" y="-696"></use>
</g>
</g>
 <use xlink:href="#E1-MJMAIN-28" x="2986" y="0"></use>
<g transform="translate(3380,0)">
 <use xlink:href="#E1-MJMATHI-3BB" x="0" y="0"></use>
 <use transform="scale(0.707)" xlink:href="#E1-MJMAIN-30" x="831" y="-213"></use>
</g>
 <use xlink:href="#E1-MJMAIN-2B" x="4647" y="0"></use>
 <use xlink:href="#E1-MJMATHI-4E" x="5653" y="0"></use>
 <use xlink:href="#E1-MJMAIN-29" x="6546" y="0"></use>
<g transform="translate(7106,0)">
 <use xlink:href="#E1-MJMAIN-45" x="0" y="0"></use>
 <use transform="scale(0.707)" xlink:href="#E1-MJMATHI-3C4" x="970" y="-213"></use>
</g>
 <use xlink:href="#E1-MJMAIN-5B" x="8261" y="0"></use>
 <use xlink:href="#E1-MJMATHI-3C4" x="8544" y="0"></use>
 <use xlink:href="#E1-MJMAIN-5D" x="9066" y="0"></use>
<g transform="translate(9349,0)">
 <use xlink:href="#E1-MJSZ4-28"></use>
 <use xlink:href="#E1-MJMATHI-3BC" x="797" y="0"></use>
 <use xlink:href="#E1-MJMAIN-2212" x="1627" y="0"></use>
<g transform="translate(2632,0)">
<g transform="translate(120,0)">
<rect stroke="none" width="7228" height="60" x="0" y="220"></rect>
<g transform="translate(60,829)">
 <use xlink:href="#E1-MJMATHI-3BB" x="0" y="0"></use>
 <use transform="scale(0.707)" xlink:href="#E1-MJMAIN-30" x="831" y="-213"></use>
<g transform="translate(1045,0)">
 <use xlink:href="#E1-MJMATHI-3BC" x="0" y="0"></use>
 <use transform="scale(0.707)" xlink:href="#E1-MJMAIN-30" x="859" y="-213"></use>
</g>
 <use xlink:href="#E1-MJMAIN-2B" x="2332" y="0"></use>
<g transform="translate(3337,0)">
 <use xlink:href="#E1-MJSZ1-2211" x="0" y="0"></use>
 <use transform="scale(0.707)" xlink:href="#E1-MJMATHI-4E" x="1500" y="688"></use>
<g transform="translate(1061,-296)">
 <use transform="scale(0.707)" xlink:href="#E1-MJMATHI-6E" x="0" y="0"></use>
 <use transform="scale(0.707)" xlink:href="#E1-MJMAIN-3D" x="605" y="0"></use>
 <use transform="scale(0.707)" xlink:href="#E1-MJMAIN-31" x="1388" y="0"></use>
</g>
</g>
<g transform="translate(6003,0)">
 <use xlink:href="#E1-MJMATHI-78" x="0" y="0"></use>
 <use transform="scale(0.707)" xlink:href="#E1-MJMATHI-6E" x="816" y="-213"></use>
</g>
</g>
<g transform="translate(2031,-724)">
 <use xlink:href="#E1-MJMATHI-3BB" x="0" y="0"></use>
 <use transform="scale(0.707)" xlink:href="#E1-MJMAIN-30" x="831" y="-213"></use>
 <use xlink:href="#E1-MJMAIN-2B" x="1267" y="0"></use>
 <use xlink:href="#E1-MJMATHI-4E" x="2272" y="0"></use>
</g>
</g>
</g>
 <use xlink:href="#E1-MJSZ4-29" x="10101" y="0"></use>
 <use transform="scale(0.707)" xlink:href="#E1-MJMAIN-32" x="15412" y="2168"></use>
</g>
 <use xlink:href="#E1-MJMAIN-2B" x="20927" y="0"></use>
<g transform="translate(21932,0)">
 <use xlink:href="#E1-MJMATHI-43" x="0" y="0"></use>
 <use transform="scale(0.707)" xlink:href="#E1-MJMAIN-35" x="1018" y="-213"></use>
</g>
</g>
</g>
</g>
</g>
</svg>